<svg
  xmlns="http://www.w3.org/2000/svg"
  xmlns:xlink="http://www.w3.org/1999/xlink"
  width="749"
  height="525"
  viewBox="77 19 749 525"
>
  <defs>
    <style>
      .cls-1,
      .cls-13,
      .cls-9 {
        fill: none;
      }

      @keyframes move {
        from {
          transform: rotate(0px);
        }
        to {
          transform: rotate(360deg);
        }
      }

      .cls-2 {
        clip-path: url(#clip-path);
        /*animation: move 5s infinite;*/
      }

      .cls-3 {
        fill: #ffd264;
      }

      .cls-4,
      .cls-5 {
        fill: #e4aa4a;
        opacity: 0.69;
      }

      .cls-5,
      .cls-8 {
        fill-rule: evenodd;
      }

      .cls-6 {
        fill: #dd4d8c;
      }

      .cls-7 {
        fill: #65b1f1;
      }

      .cls-8 {
        fill: #5ea5dd;
      }

      .cls-10,
      .cls-13,
      .cls-9 {
        stroke: #fff;
        stroke-miterlimit: 10;
      }

      .cls-10,
      .cls-11 {
        fill: #fff;
      }

      .cls-10 {
        stroke-width: 0.5px;
      }

      .cls-12 {
        fill: #79c2ef;
      }

      .cls-13 {
        stroke-width: 4px;
      }
    </style>
    <clipPath id="clip-path" transform="translate(76.3368 18.6377)">
      <rect class="cls-1" width="750.00001" height="500" />
    </clipPath>
  </defs>
  <title>Zasób 1</title>
  <g id="Warstwa_2" data-name="Warstwa 2">
    <g id="BACKGROUND_2" data-name="BACKGROUND 2">
      <g class="cls-2">
        <g>
          <rect
            class="cls-3"
            x="76.3368"
            y="18.6377"
            width="750.00001"
            height="500"
          />
          <path
            class="cls-4"
            d="M242.57069,499.646l141.5069-141.5073a17.154,17.154,0,0,0-24.2594-24.2594l-42.3611,42.3611a17.1512,17.1512,0,0,1-24.2598-24.2511l1.8498-1.8518a17.14953,17.14953,0,0,0-24.2512-24.255l-17.7715,17.765A17.15119,17.15119,0,1,1,228.769,319.392l-1.7774,1.7713a17.1512,17.1512,0,0,0-24.2641-24.2468L98.8244,400.8196l-8.2274,8.2296-9.7049,9.7049L.0002,499.646Z"
            transform="translate(76.3368 18.6377)"
          />
          <polygon
            class="cls-5"
            points="484.045 19.723 283.059 19.723 77.673 225.108 77.764 426.004 484.045 19.723"
          />
          <path
            class="cls-6"
            d="M109.2601,350.9795c-48.9397-34.2199-20.5285-78.115-3.3365-125.601,17.1897-47.486-35.2013-82.4066-84.9093-54.3229-7.7354,4.3712-14.724,6.528-21.0143,7.0601V500H265.37509a375.24132,375.24132,0,0,1,4.9359-41.0758C292.37139,332.5426,158.2001,385.2023,109.2601,350.9795Z"
            transform="translate(76.3368 18.6377)"
          />
          <path
            class="cls-7"
            d="M760,0h-95.6848c29.8901,129.8219-99.9617,75-153.8733,76.4509-45.31552,1.2195-85.13392,45.0357-63.07662,98.6071,22.0571,53.5715,71.91352,39.533,29.04282,148.0536-39.83642,100.8397,12,176.8884,12,176.8884H760Z"
            transform="translate(76.3368 18.6377)"
          />
          <polygon
            class="cls-8"
            points="419.965 518.602 620.952 518.602 826.337 313.217 826.246 112.321 419.965 518.602"
          />
          <g class="cls-2">
            <path
              class="cls-9"
              d="M664.71541,499.9984a75.83675,75.83675,0,1,1-75.836-75.836A75.83685,75.83685,0,0,1,664.71541,499.9984Z"
              transform="translate(76.3368 18.6377)"
            />
            <path
              class="cls-9"
              d="M660.04691,499.9984a71.1683,71.1683,0,1,1-71.1675-71.1675A71.16877,71.16877,0,0,1,660.04691,499.9984Z"
              transform="translate(76.3368 18.6377)"
            />
            <path
              class="cls-9"
              d="M655.37711,499.9984a66.49835,66.49835,0,1,1-66.4977-66.4975A66.4983,66.4983,0,0,1,655.37711,499.9984Z"
              transform="translate(76.3368 18.6377)"
            />
            <path
              class="cls-9"
              d="M650.70861,499.9984a61.8299,61.8299,0,1,1-61.8292-61.8292A61.83015,61.83015,0,0,1,650.70861,499.9984Z"
              transform="translate(76.3368 18.6377)"
            />
            <path
              class="cls-9"
              d="M646.04021,499.9984a57.16155,57.16155,0,1,1-57.1608-57.1608A57.16221,57.16221,0,0,1,646.04021,499.9984Z"
              transform="translate(76.3368 18.6377)"
            />
            <path
              class="cls-9"
              d="M641.37031,499.9984a52.4916,52.4916,0,1,1-52.4909-52.4907A52.49142,52.49142,0,0,1,641.37031,499.9984Z"
              transform="translate(76.3368 18.6377)"
            />
            <path
              class="cls-9"
              d="M636.70191,499.9984a47.8232,47.8232,0,1,1-47.8225-47.8223A47.82357,47.82357,0,0,1,636.70191,499.9984Z"
              transform="translate(76.3368 18.6377)"
            />
            <path
              class="cls-9"
              d="M632.03181,499.9984a43.1532,43.1532,0,1,1-43.1524-43.1524A43.15276,43.15276,0,0,1,632.03181,499.9984Z"
              transform="translate(76.3368 18.6377)"
            />
            <path
              class="cls-9"
              d="M627.36341,499.9984a38.4848,38.4848,0,1,1-38.484-38.484A38.48476,38.48476,0,0,1,627.36341,499.9984Z"
              transform="translate(76.3368 18.6377)"
            />
            <path
              class="cls-9"
              d="M622.69521,499.9984a33.81645,33.81645,0,1,1-33.8158-33.8156A33.81685,33.81685,0,0,1,622.69521,499.9984Z"
              transform="translate(76.3368 18.6377)"
            />
            <path
              class="cls-9"
              d="M618.02511,499.9984a29.1464,29.1464,0,1,1-29.1457-29.1457A29.1462,29.1462,0,0,1,618.02511,499.9984Z"
              transform="translate(76.3368 18.6377)"
            />
            <path
              class="cls-9"
              d="M613.35671,499.9984a24.47805,24.47805,0,1,1-24.4773-24.4773A24.47818,24.47818,0,0,1,613.35671,499.9984Z"
              transform="translate(76.3368 18.6377)"
            />
            <path
              class="cls-9"
              d="M75.8367,71.7088A75.83677,75.83677,0,0,1,.00081,147.5463,75.83624,75.83624,0,0,1-75.8368,71.7088,75.83589,75.83589,0,0,1,.00081-4.12717,75.83642,75.83642,0,0,1,75.8367,71.7088Z"
              transform="translate(76.3368 18.6377)"
            />
            <path
              class="cls-9"
              d="M71.1683,71.7088A71.16877,71.16877,0,0,1,.00081,142.8779,71.16924,71.16924,0,0,1-71.1683,71.7088,71.16887,71.16887,0,0,1,.00081.54126,71.1684,71.1684,0,0,1,71.1683,71.7088Z"
              transform="translate(76.3368 18.6377)"
            />
            <path
              class="cls-9"
              d="M66.4984,71.7088A66.49821,66.49821,0,0,1,.00081,138.208,66.49744,66.49744,0,0,1-66.4983,71.7088,66.497,66.497,0,0,1,.00081,5.21131,66.49777,66.49777,0,0,1,66.4984,71.7088Z"
              transform="translate(76.3368 18.6377)"
            />
            <path
              class="cls-9"
              d="M61.83,71.7088A61.83021,61.83021,0,0,1,.00081,133.5396,61.83045,61.83045,0,0,1-61.8298,71.7088,61.8302,61.8302,0,0,1,.00081,9.87957,61.83,61.83,0,0,1,61.83,71.7088Z"
              transform="translate(76.3368 18.6377)"
            />
            <path
              class="cls-9"
              d="M57.1616,71.7088A57.16228,57.16228,0,0,1,.00081,128.8712,57.16153,57.16153,0,0,1-57.1616,71.7088,57.16119,57.16119,0,0,1,.00081,14.548,57.16193,57.16193,0,0,1,57.1616,71.7088Z"
              transform="translate(76.3368 18.6377)"
            />
            <path
              class="cls-9"
              d="M52.4917,71.7088A52.49148,52.49148,0,0,1,.00081,124.2011,52.49172,52.49172,0,0,1-52.4915,71.7088,52.49144,52.49144,0,0,1,.00081,19.2181,52.49121,52.49121,0,0,1,52.4917,71.7088Z"
              transform="translate(76.3368 18.6377)"
            />
            <path
              class="cls-9"
              d="M47.8232,71.7088A47.82348,47.82348,0,0,1,.00081,119.5328,47.82278,47.82278,0,0,1-47.8231,71.7088,47.82229,47.82229,0,0,1,.00081,23.8865,47.823,47.823,0,0,1,47.8232,71.7088Z"
              transform="translate(76.3368 18.6377)"
            />
            <path
              class="cls-9"
              d="M43.1532,71.7088A43.15276,43.15276,0,0,1,.00081,114.8628a43.15316,43.15316,0,0,1-43.154-43.154A43.15281,43.15281,0,0,1,.00081,28.5564,43.15241,43.15241,0,0,1,43.1532,71.7088Z"
              transform="translate(76.3368 18.6377)"
            />
            <path
              class="cls-9"
              d="M38.48481,71.7088a38.48482,38.48482,0,0,1-38.484,38.4856A38.48421,38.48421,0,0,1-38.4848,71.7088,38.4838,38.4838,0,0,1,.00081,33.2248,38.48442,38.48442,0,0,1,38.48481,71.7088Z"
              transform="translate(76.3368 18.6377)"
            />
            <path
              class="cls-9"
              d="M33.8165,71.7088A33.81676,33.81676,0,0,1,.00081,105.5259,33.817,33.817,0,0,1-33.8164,71.7088,33.81676,33.81676,0,0,1,.00081,37.8932,33.8165,33.8165,0,0,1,33.8165,71.7088Z"
              transform="translate(76.3368 18.6377)"
            />
            <path
              class="cls-9"
              d="M29.1465,71.7088A29.14618,29.14618,0,0,1,.00081,100.856,29.14539,29.14539,0,0,1-29.1463,71.7088,29.14514,29.14514,0,0,1,.00081,42.5631,29.14592,29.14592,0,0,1,29.1465,71.7088Z"
              transform="translate(76.3368 18.6377)"
            />
            <path
              class="cls-9"
              d="M24.478,71.7088A24.47816,24.47816,0,0,1,.00081,96.1876,24.47853,24.47853,0,0,1-24.4781,71.7088,24.47821,24.47821,0,0,1,.00081,47.2315,24.47784,24.47784,0,0,1,24.478,71.7088Z"
              transform="translate(76.3368 18.6377)"
            />
          </g>
          <polygon
            class="cls-6"
            points="634.844 292.397 653.377 297.364 671.912 302.33 658.345 315.899 644.776 329.467 639.81 310.932 634.844 292.397"
          />
          <path
            class="cls-10"
            d="M151.5799,108.2503c-39.3308,71.6298,82.92859,120.8753,99.96329,35.8149,17.0344-85.0604,46.7154-85.0604,99.1323-76.1067,47.3618,8.0879,131.79592,6.4834,107.217-67.7126H125.19381S190.9103,36.6204,151.5799,108.2503Z"
            transform="translate(76.3368 18.6377)"
          />
          <g>
            <g>
              <g>
                <path
                  class="cls-7"
                  d="M204.52249,268.6089a1.47355,1.47355,0,1,1-1.4744-1.4744A1.47637,1.47637,0,0,1,204.52249,268.6089Z"
                  transform="translate(76.3368 18.6377)"
                />
                <path
                  class="cls-7"
                  d="M216.87489,268.6089a1.472,1.472,0,1,1-1.4728-1.4744A1.47289,1.47289,0,0,1,216.87489,268.6089Z"
                  transform="translate(76.3368 18.6377)"
                />
                <path
                  class="cls-7"
                  d="M229.23209,268.6089a1.4736,1.4736,0,1,1-1.4728-1.4744A1.47591,1.47591,0,0,1,229.23209,268.6089Z"
                  transform="translate(76.3368 18.6377)"
                />
                <path
                  class="cls-7"
                  d="M241.58789,268.6089a1.47285,1.47285,0,1,1-1.4744-1.4744A1.47637,1.47637,0,0,1,241.58789,268.6089Z"
                  transform="translate(76.3368 18.6377)"
                />
                <path
                  class="cls-7"
                  d="M253.94181,268.6089a1.47356,1.47356,0,1,1-1.47272-1.4744A1.47494,1.47494,0,0,1,253.94181,268.6089Z"
                  transform="translate(76.3368 18.6377)"
                />
              </g>
              <g>
                <path
                  class="cls-7"
                  d="M204.52249,279.7162a1.47355,1.47355,0,1,1-1.4744-1.4744A1.47494,1.47494,0,0,1,204.52249,279.7162Z"
                  transform="translate(76.3368 18.6377)"
                />
                <path
                  class="cls-7"
                  d="M216.87489,279.7162a1.472,1.472,0,1,1-1.4728-1.4744A1.47146,1.47146,0,0,1,216.87489,279.7162Z"
                  transform="translate(76.3368 18.6377)"
                />
                <path
                  class="cls-7"
                  d="M229.23209,279.7162a1.4736,1.4736,0,1,1-1.4728-1.4744A1.47447,1.47447,0,0,1,229.23209,279.7162Z"
                  transform="translate(76.3368 18.6377)"
                />
                <path
                  class="cls-7"
                  d="M241.58789,279.7162a1.47285,1.47285,0,1,1-1.4744-1.4744A1.47494,1.47494,0,0,1,241.58789,279.7162Z"
                  transform="translate(76.3368 18.6377)"
                />
                <path
                  class="cls-7"
                  d="M253.94181,279.7162a1.47356,1.47356,0,1,1-1.47272-1.4744A1.47351,1.47351,0,0,1,253.94181,279.7162Z"
                  transform="translate(76.3368 18.6377)"
                />
              </g>
              <g>
                <path
                  class="cls-7"
                  d="M204.52249,290.8219a1.47355,1.47355,0,1,1-1.4744-1.4728A1.47392,1.47392,0,0,1,204.52249,290.8219Z"
                  transform="translate(76.3368 18.6377)"
                />
                <path
                  class="cls-7"
                  d="M216.87489,290.8219a1.472,1.472,0,1,1-1.4728-1.4728A1.47044,1.47044,0,0,1,216.87489,290.8219Z"
                  transform="translate(76.3368 18.6377)"
                />
                <path
                  class="cls-7"
                  d="M229.23209,290.8219a1.4736,1.4736,0,1,1-1.4728-1.4728A1.47345,1.47345,0,0,1,229.23209,290.8219Z"
                  transform="translate(76.3368 18.6377)"
                />
                <path
                  class="cls-7"
                  d="M241.58789,290.8219a1.47285,1.47285,0,1,1-1.4744-1.4728A1.47392,1.47392,0,0,1,241.58789,290.8219Z"
                  transform="translate(76.3368 18.6377)"
                />
                <path
                  class="cls-7"
                  d="M253.94181,290.8219a1.47356,1.47356,0,1,1-1.47272-1.4728A1.47248,1.47248,0,0,1,253.94181,290.8219Z"
                  transform="translate(76.3368 18.6377)"
                />
              </g>
              <g>
                <path
                  class="cls-7"
                  d="M204.52249,301.9276a1.47355,1.47355,0,1,1-1.4744-1.4728A1.47515,1.47515,0,0,1,204.52249,301.9276Z"
                  transform="translate(76.3368 18.6377)"
                />
                <path
                  class="cls-7"
                  d="M216.87489,301.9276a1.472,1.472,0,1,1-1.4728-1.4728A1.47168,1.47168,0,0,1,216.87489,301.9276Z"
                  transform="translate(76.3368 18.6377)"
                />
                <path
                  class="cls-7"
                  d="M229.23209,301.9276a1.4736,1.4736,0,1,1-1.4728-1.4728A1.47469,1.47469,0,0,1,229.23209,301.9276Z"
                  transform="translate(76.3368 18.6377)"
                />
                <path
                  class="cls-7"
                  d="M241.58789,301.9276a1.47285,1.47285,0,1,1-1.4744-1.4728A1.47515,1.47515,0,0,1,241.58789,301.9276Z"
                  transform="translate(76.3368 18.6377)"
                />
                <path
                  class="cls-7"
                  d="M253.94181,301.9276a1.47356,1.47356,0,1,1-1.47272-1.4728A1.47372,1.47372,0,0,1,253.94181,301.9276Z"
                  transform="translate(76.3368 18.6377)"
                />
              </g>
              <g>
                <path
                  class="cls-7"
                  d="M204.52249,313.0335a1.47355,1.47355,0,1,1-1.4744-1.473A1.47409,1.47409,0,0,1,204.52249,313.0335Z"
                  transform="translate(76.3368 18.6377)"
                />
                <path
                  class="cls-7"
                  d="M216.87489,313.0335a1.472,1.472,0,1,1-1.4728-1.473A1.47062,1.47062,0,0,1,216.87489,313.0335Z"
                  transform="translate(76.3368 18.6377)"
                />
                <path
                  class="cls-7"
                  d="M229.23209,313.0335a1.4736,1.4736,0,1,1-1.4728-1.473A1.47362,1.47362,0,0,1,229.23209,313.0335Z"
                  transform="translate(76.3368 18.6377)"
                />
                <path
                  class="cls-7"
                  d="M241.58789,313.0335a1.47285,1.47285,0,1,1-1.4744-1.473A1.47409,1.47409,0,0,1,241.58789,313.0335Z"
                  transform="translate(76.3368 18.6377)"
                />
                <path
                  class="cls-7"
                  d="M253.94181,313.0335a1.47356,1.47356,0,1,1-1.47272-1.473A1.47265,1.47265,0,0,1,253.94181,313.0335Z"
                  transform="translate(76.3368 18.6377)"
                />
              </g>
            </g>
            <rect
              class="cls-6"
              x="319.32099"
              y="279.6517"
              width="17.0781"
              height="17.0781"
            />
          </g>
          <g>
            <g>
              <path
                class="cls-10"
                d="M484.59631,117.1181a1.4736,1.4736,0,1,1-1.4744-1.4744A1.47637,1.47637,0,0,1,484.59631,117.1181Z"
                transform="translate(76.3368 18.6377)"
              />
              <path
                class="cls-10"
                d="M496.94871,117.1181a1.472,1.472,0,1,1-1.4728-1.4744A1.473,1.473,0,0,1,496.94871,117.1181Z"
                transform="translate(76.3368 18.6377)"
              />
              <path
                class="cls-10"
                d="M509.30591,117.1181a1.4736,1.4736,0,1,1-1.4728-1.4744A1.476,1.476,0,0,1,509.30591,117.1181Z"
                transform="translate(76.3368 18.6377)"
              />
              <path
                class="cls-10"
                d="M521.66161,117.1181a1.47285,1.47285,0,1,1-1.4744-1.4744A1.47637,1.47637,0,0,1,521.66161,117.1181Z"
                transform="translate(76.3368 18.6377)"
              />
              <path
                class="cls-10"
                d="M534.01561,117.1181a1.4736,1.4736,0,1,1-1.4728-1.4744A1.475,1.475,0,0,1,534.01561,117.1181Z"
                transform="translate(76.3368 18.6377)"
              />
            </g>
            <g>
              <path
                class="cls-10"
                d="M484.59631,128.2254a1.4736,1.4736,0,1,1-1.4744-1.4744A1.47494,1.47494,0,0,1,484.59631,128.2254Z"
                transform="translate(76.3368 18.6377)"
              />
              <path
                class="cls-10"
                d="M496.94871,128.2254a1.472,1.472,0,1,1-1.4728-1.4744A1.47153,1.47153,0,0,1,496.94871,128.2254Z"
                transform="translate(76.3368 18.6377)"
              />
              <path
                class="cls-10"
                d="M509.30591,128.2254a1.4736,1.4736,0,1,1-1.4728-1.4744A1.47454,1.47454,0,0,1,509.30591,128.2254Z"
                transform="translate(76.3368 18.6377)"
              />
              <path
                class="cls-10"
                d="M521.66161,128.2254a1.47285,1.47285,0,1,1-1.4744-1.4744A1.47494,1.47494,0,0,1,521.66161,128.2254Z"
                transform="translate(76.3368 18.6377)"
              />
              <path
                class="cls-10"
                d="M534.01561,128.2254a1.4736,1.4736,0,1,1-1.4728-1.4744A1.47358,1.47358,0,0,1,534.01561,128.2254Z"
                transform="translate(76.3368 18.6377)"
              />
            </g>
            <g>
              <path
                class="cls-10"
                d="M484.59631,139.3311a1.4736,1.4736,0,1,1-1.4744-1.4727A1.47392,1.47392,0,0,1,484.59631,139.3311Z"
                transform="translate(76.3368 18.6377)"
              />
              <path
                class="cls-10"
                d="M496.94871,139.3311a1.472,1.472,0,1,1-1.4728-1.4727A1.47051,1.47051,0,0,1,496.94871,139.3311Z"
                transform="translate(76.3368 18.6377)"
              />
              <path
                class="cls-10"
                d="M509.30591,139.3311a1.4736,1.4736,0,1,1-1.4728-1.4727A1.47351,1.47351,0,0,1,509.30591,139.3311Z"
                transform="translate(76.3368 18.6377)"
              />
              <path
                class="cls-10"
                d="M521.66161,139.3311a1.47285,1.47285,0,1,1-1.4744-1.4727A1.47392,1.47392,0,0,1,521.66161,139.3311Z"
                transform="translate(76.3368 18.6377)"
              />
              <path
                class="cls-10"
                d="M534.01561,139.3311a1.4736,1.4736,0,1,1-1.4728-1.4727A1.47255,1.47255,0,0,1,534.01561,139.3311Z"
                transform="translate(76.3368 18.6377)"
              />
            </g>
            <g>
              <path
                class="cls-10"
                d="M484.59631,150.4368a1.4736,1.4736,0,1,1-1.4744-1.4727A1.47515,1.47515,0,0,1,484.59631,150.4368Z"
                transform="translate(76.3368 18.6377)"
              />
              <path
                class="cls-10"
                d="M496.94871,150.4368a1.472,1.472,0,1,1-1.4728-1.4727A1.47174,1.47174,0,0,1,496.94871,150.4368Z"
                transform="translate(76.3368 18.6377)"
              />
              <path
                class="cls-10"
                d="M509.30591,150.4368a1.4736,1.4736,0,1,1-1.4728-1.4727A1.47475,1.47475,0,0,1,509.30591,150.4368Z"
                transform="translate(76.3368 18.6377)"
              />
              <path
                class="cls-10"
                d="M521.66161,150.4368a1.47285,1.47285,0,1,1-1.4744-1.4727A1.47515,1.47515,0,0,1,521.66161,150.4368Z"
                transform="translate(76.3368 18.6377)"
              />
              <path
                class="cls-10"
                d="M534.01561,150.4368a1.4736,1.4736,0,1,1-1.4728-1.4727A1.47379,1.47379,0,0,1,534.01561,150.4368Z"
                transform="translate(76.3368 18.6377)"
              />
            </g>
            <g>
              <path
                class="cls-10"
                d="M484.59631,161.5427a1.4736,1.4736,0,1,1-1.4744-1.4729A1.47409,1.47409,0,0,1,484.59631,161.5427Z"
                transform="translate(76.3368 18.6377)"
              />
              <path
                class="cls-10"
                d="M496.94871,161.5427a1.472,1.472,0,1,1-1.4728-1.4729A1.47068,1.47068,0,0,1,496.94871,161.5427Z"
                transform="translate(76.3368 18.6377)"
              />
              <path
                class="cls-10"
                d="M509.30591,161.5427a1.4736,1.4736,0,1,1-1.4728-1.4729A1.47368,1.47368,0,0,1,509.30591,161.5427Z"
                transform="translate(76.3368 18.6377)"
              />
              <path
                class="cls-10"
                d="M521.66161,161.5427a1.47285,1.47285,0,1,1-1.4744-1.4729A1.47409,1.47409,0,0,1,521.66161,161.5427Z"
                transform="translate(76.3368 18.6377)"
              />
              <path
                class="cls-10"
                d="M534.01561,161.5427a1.4736,1.4736,0,1,1-1.4728-1.4729A1.47272,1.47272,0,0,1,534.01561,161.5427Z"
                transform="translate(76.3368 18.6377)"
              />
            </g>
          </g>
          <g>
            <g>
              <g>
                <path
                  class="cls-11"
                  d="M535.04091,211.4777a.81285.81285,0,0,1-.5764-.2388l-6.1445-6.1445a.81515.81515,0,1,1,1.1529-1.1527l6.1443,6.1443a.81525.81525,0,0,1-.5763,1.3917Z"
                  transform="translate(76.3368 18.6377)"
                />
                <path
                  class="cls-11"
                  d="M528.89661,211.4792a.81515.81515,0,0,1-.5766-1.3916l6.1429-6.1459a.81508.81508,0,1,1,1.1527,1.1527l-6.1427,6.1461A.813.813,0,0,1,528.89661,211.4792Z"
                  transform="translate(76.3368 18.6377)"
                />
              </g>
              <g>
                <path
                  class="cls-11"
                  d="M552.02511,211.4777a.81319.81319,0,0,1-.5764-.2388l-6.1444-6.1445a.81515.81515,0,0,1,1.1529-1.1527l6.1443,6.1443a.81525.81525,0,0,1-.5764,1.3917Z"
                  transform="translate(76.3368 18.6377)"
                />
                <path
                  class="cls-11"
                  d="M545.88061,211.4792a.81515.81515,0,0,1-.5763-1.3916l6.1428-6.1459a.81508.81508,0,0,1,1.1527,1.1527l-6.1426,6.1461A.81337.81337,0,0,1,545.88061,211.4792Z"
                  transform="translate(76.3368 18.6377)"
                />
              </g>
              <g>
                <path
                  class="cls-11"
                  d="M569.00931,211.4777a.81279.81279,0,0,1-.5763-.2388l-6.1445-6.1445a.81515.81515,0,0,1,1.1529-1.1527l6.1443,6.1443a.81525.81525,0,0,1-.5764,1.3917Z"
                  transform="translate(76.3368 18.6377)"
                />
                <path
                  class="cls-11"
                  d="M562.86491,211.4792a.81515.81515,0,0,1-.5764-1.3916l6.1428-6.1459a.81512.81512,0,1,1,1.1528,1.1527l-6.1427,6.1461A.81314.81314,0,0,1,562.86491,211.4792Z"
                  transform="translate(76.3368 18.6377)"
                />
              </g>
              <g>
                <path
                  class="cls-11"
                  d="M585.99361,211.4777a.81285.81285,0,0,1-.5764-.2388l-6.1444-6.1445a.81508.81508,0,1,1,1.1527-1.1527l6.1444,6.1443a.81525.81525,0,0,1-.5763,1.3917Z"
                  transform="translate(76.3368 18.6377)"
                />
                <path
                  class="cls-11"
                  d="M579.84911,211.4792a.81515.81515,0,0,1-.5763-1.3916l6.1428-6.1459a.81508.81508,0,1,1,1.1527,1.1527l-6.1428,6.1461A.81274.81274,0,0,1,579.84911,211.4792Z"
                  transform="translate(76.3368 18.6377)"
                />
              </g>
            </g>
            <g>
              <g>
                <path
                  class="cls-11"
                  d="M535.04091,226.5878a.81274.81274,0,0,1-.5764-.2387l-6.1445-6.1445a.81515.81515,0,1,1,1.1529-1.1527l6.1443,6.1443a.81515.81515,0,0,1-.5763,1.3916Z"
                  transform="translate(76.3368 18.6377)"
                />
                <path
                  class="cls-11"
                  d="M528.89661,226.5894a.81525.81525,0,0,1-.5766-1.3916l6.1429-6.1459a.81508.81508,0,1,1,1.1527,1.1527l-6.1427,6.1459A.8124.8124,0,0,1,528.89661,226.5894Z"
                  transform="translate(76.3368 18.6377)"
                />
              </g>
              <g>
                <path
                  class="cls-11"
                  d="M552.02511,226.5878a.81308.81308,0,0,1-.5764-.2387l-6.1444-6.1445a.81515.81515,0,1,1,1.1529-1.1527l6.1443,6.1443a.81515.81515,0,0,1-.5764,1.3916Z"
                  transform="translate(76.3368 18.6377)"
                />
                <path
                  class="cls-11"
                  d="M545.88061,226.5894a.81525.81525,0,0,1-.5763-1.3916l6.1428-6.1459a.81508.81508,0,1,1,1.1527,1.1527l-6.1426,6.1459A.81274.81274,0,0,1,545.88061,226.5894Z"
                  transform="translate(76.3368 18.6377)"
                />
              </g>
              <g>
                <path
                  class="cls-11"
                  d="M569.00931,226.5878a.81269.81269,0,0,1-.5763-.2387l-6.1445-6.1445a.81515.81515,0,1,1,1.1529-1.1527l6.1443,6.1443a.81515.81515,0,0,1-.5764,1.3916Z"
                  transform="translate(76.3368 18.6377)"
                />
                <path
                  class="cls-11"
                  d="M562.86491,226.5894a.81525.81525,0,0,1-.5764-1.3916l6.1428-6.1459a.81512.81512,0,1,1,1.1528,1.1527l-6.1427,6.1459A.81251.81251,0,0,1,562.86491,226.5894Z"
                  transform="translate(76.3368 18.6377)"
                />
              </g>
              <g>
                <path
                  class="cls-11"
                  d="M585.99361,226.5878a.81274.81274,0,0,1-.5764-.2387l-6.1444-6.1445a.81508.81508,0,1,1,1.1527-1.1527l6.1444,6.1443a.81515.81515,0,0,1-.5763,1.3916Z"
                  transform="translate(76.3368 18.6377)"
                />
                <path
                  class="cls-11"
                  d="M579.84911,226.5894a.81525.81525,0,0,1-.5763-1.3916l6.1428-6.1459a.81508.81508,0,1,1,1.1527,1.1527l-6.1428,6.1459A.81212.81212,0,0,1,579.84911,226.5894Z"
                  transform="translate(76.3368 18.6377)"
                />
              </g>
            </g>
          </g>
          <g>
            <g>
              <g>
                <path
                  class="cls-11"
                  d="M44.9129,211.1853a.81285.81285,0,0,1,.2388-.5764l6.1445-6.1444a.81512.81512,0,1,1,1.1527,1.1528l-6.1443,6.1443a.81525.81525,0,0,1-1.3917-.5763Z"
                  transform="translate(76.3368 18.6377)"
                />
                <path
                  class="cls-11"
                  d="M44.9114,205.041a.81515.81515,0,0,1,1.3916-.5765l6.1459,6.1428a.81508.81508,0,1,1-1.1527,1.1527l-6.1461-6.1427A.813.813,0,0,1,44.9114,205.041Z"
                  transform="translate(76.3368 18.6377)"
                />
              </g>
              <g>
                <path
                  class="cls-11"
                  d="M44.9129,228.1695a.81279.81279,0,0,1,.2388-.5763l6.1445-6.1445a.81515.81515,0,1,1,1.1527,1.1529l-6.1443,6.1443a.81525.81525,0,0,1-1.3917-.5764Z"
                  transform="translate(76.3368 18.6377)"
                />
                <path
                  class="cls-11"
                  d="M44.9114,222.0251a.81515.81515,0,0,1,1.3916-.5764l6.1459,6.1428a.81508.81508,0,0,1-1.1527,1.1527l-6.1461-6.1426A.81314.81314,0,0,1,44.9114,222.0251Z"
                  transform="translate(76.3368 18.6377)"
                />
              </g>
              <g>
                <path
                  class="cls-11"
                  d="M44.9129,245.1538a.81285.81285,0,0,1,.2388-.5764l6.1445-6.1445a.81515.81515,0,1,1,1.1527,1.1529l-6.1443,6.1443a.81525.81525,0,0,1-1.3917-.5763Z"
                  transform="translate(76.3368 18.6377)"
                />
                <path
                  class="cls-11"
                  d="M44.9114,239.0093a.81515.81515,0,0,1,1.3916-.5764l6.1459,6.1429a.81508.81508,0,1,1-1.1527,1.1527l-6.1461-6.1427A.81314.81314,0,0,1,44.9114,239.0093Z"
                  transform="translate(76.3368 18.6377)"
                />
              </g>
              <g>
                <path
                  class="cls-11"
                  d="M44.9129,262.138a.81319.81319,0,0,1,.2388-.5764l6.1445-6.1444a.81508.81508,0,0,1,1.1527,1.1527l-6.1443,6.1444a.81525.81525,0,0,1-1.3917-.5763Z"
                  transform="translate(76.3368 18.6377)"
                />
                <path
                  class="cls-11"
                  d="M44.9114,255.9935a.81515.81515,0,0,1,1.3916-.5763l6.1459,6.1428a.81508.81508,0,1,1-1.1527,1.1527l-6.1461-6.1428A.81257.81257,0,0,1,44.9114,255.9935Z"
                  transform="translate(76.3368 18.6377)"
                />
              </g>
            </g>
            <g>
              <g>
                <path
                  class="cls-11"
                  d="M29.80281,211.1853a.81273.81273,0,0,1,.23869-.5764l6.1445-6.1444a.81512.81512,0,0,1,1.1527,1.1528l-6.1443,6.1443a.81514.81514,0,0,1-1.39159-.5763Z"
                  transform="translate(76.3368 18.6377)"
                />
                <path
                  class="cls-11"
                  d="M29.8012,205.041a.81521.81521,0,0,1,1.39161-.5765l6.14589,6.1428A.81508.81508,0,0,1,36.186,211.76l-6.146-6.1427A.81275.81275,0,0,1,29.8012,205.041Z"
                  transform="translate(76.3368 18.6377)"
                />
              </g>
              <g>
                <path
                  class="cls-11"
                  d="M29.80281,228.1695a.81268.81268,0,0,1,.23869-.5763l6.1445-6.1445a.81515.81515,0,0,1,1.1527,1.1529l-6.1443,6.1443a.81514.81514,0,0,1-1.39159-.5764Z"
                  transform="translate(76.3368 18.6377)"
                />
                <path
                  class="cls-11"
                  d="M29.8012,222.0251a.81521.81521,0,0,1,1.39161-.5764l6.14589,6.1428a.81508.81508,0,0,1-1.1527,1.1527l-6.146-6.1426A.81287.81287,0,0,1,29.8012,222.0251Z"
                  transform="translate(76.3368 18.6377)"
                />
              </g>
              <g>
                <path
                  class="cls-11"
                  d="M29.80281,245.1538a.81273.81273,0,0,1,.23869-.5764l6.1445-6.1445a.81515.81515,0,1,1,1.1527,1.1529l-6.1443,6.1443a.81514.81514,0,0,1-1.39159-.5763Z"
                  transform="translate(76.3368 18.6377)"
                />
                <path
                  class="cls-11"
                  d="M29.8012,239.0093a.81521.81521,0,0,1,1.39161-.5764l6.14589,6.1429a.81508.81508,0,1,1-1.1527,1.1527l-6.146-6.1427A.81287.81287,0,0,1,29.8012,239.0093Z"
                  transform="translate(76.3368 18.6377)"
                />
              </g>
              <g>
                <path
                  class="cls-11"
                  d="M29.80281,262.138a.81307.81307,0,0,1,.23869-.5764l6.1445-6.1444a.81508.81508,0,0,1,1.1527,1.1527l-6.1443,6.1444a.81514.81514,0,0,1-1.39159-.5763Z"
                  transform="translate(76.3368 18.6377)"
                />
                <path
                  class="cls-11"
                  d="M29.8012,255.9935a.81521.81521,0,0,1,1.39161-.5763L37.3387,261.56a.81508.81508,0,0,1-1.1527,1.1527l-6.146-6.1428A.8123.8123,0,0,1,29.8012,255.9935Z"
                  transform="translate(76.3368 18.6377)"
                />
              </g>
            </g>
          </g>
          <g>
            <g>
              <g>
                <path
                  class="cls-11"
                  d="M48.2041,435.8468a.813.813,0,0,1-.5764-.2388l-6.1444-6.1445a.81512.81512,0,0,1,1.1528-1.1527l6.1443,6.1443a.81525.81525,0,0,1-.5763,1.3917Z"
                  transform="translate(76.3368 18.6377)"
                />
                <path
                  class="cls-11"
                  d="M42.05981,435.8483a.81515.81515,0,0,1-.57651-1.3916l6.1428-6.1459a.81509.81509,0,0,1,1.15271,1.1527l-6.14271,6.1461A.81285.81285,0,0,1,42.05981,435.8483Z"
                  transform="translate(76.3368 18.6377)"
                />
              </g>
              <g>
                <path
                  class="cls-11"
                  d="M65.1883,435.8468a.81281.81281,0,0,1-.5763-.2388l-6.1445-6.1445a.81515.81515,0,0,1,1.1529-1.1527l6.1443,6.1443a.81525.81525,0,0,1-.5764,1.3917Z"
                  transform="translate(76.3368 18.6377)"
                />
                <path
                  class="cls-11"
                  d="M59.0439,435.8483a.81515.81515,0,0,1-.5764-1.3916l6.1428-6.1459a.81508.81508,0,0,1,1.1527,1.1527l-6.1426,6.1461A.81314.81314,0,0,1,59.0439,435.8483Z"
                  transform="translate(76.3368 18.6377)"
                />
              </g>
              <g>
                <path
                  class="cls-11"
                  d="M82.1726,435.8468a.81285.81285,0,0,1-.5764-.2388l-6.1445-6.1445a.81515.81515,0,0,1,1.1529-1.1527l6.1443,6.1443a.81525.81525,0,0,1-.5763,1.3917Z"
                  transform="translate(76.3368 18.6377)"
                />
                <path
                  class="cls-11"
                  d="M76.0281,435.8483a.81515.81515,0,0,1-.5764-1.3916l6.1429-6.1459a.81508.81508,0,0,1,1.1527,1.1527l-6.1427,6.1461A.81312.81312,0,0,1,76.0281,435.8483Z"
                  transform="translate(76.3368 18.6377)"
                />
              </g>
              <g>
                <path
                  class="cls-11"
                  d="M99.15681,435.8468a.81319.81319,0,0,1-.57641-.2388l-6.1444-6.1445a.81508.81508,0,0,1,1.1527-1.1527l6.1445,6.1443a.81525.81525,0,0,1-.57639,1.3917Z"
                  transform="translate(76.3368 18.6377)"
                />
                <path
                  class="cls-11"
                  d="M93.0123,435.8483a.81515.81515,0,0,1-.5763-1.3916l6.14281-6.1459a.81508.81508,0,0,1,1.15269,1.1527l-6.1428,6.1461A.81257.81257,0,0,1,93.0123,435.8483Z"
                  transform="translate(76.3368 18.6377)"
                />
              </g>
            </g>
            <g>
              <g>
                <path
                  class="cls-11"
                  d="M48.2041,450.9569a.81291.81291,0,0,1-.5764-.2387l-6.1444-6.1445a.81512.81512,0,0,1,1.1528-1.1527l6.1443,6.1443a.81515.81515,0,0,1-.5763,1.3916Z"
                  transform="translate(76.3368 18.6377)"
                />
                <path
                  class="cls-11"
                  d="M42.05981,450.9585a.81515.81515,0,0,1-.57651-1.3915l6.1428-6.146a.81509.81509,0,0,1,1.15271,1.1527l-6.14271,6.146A.81212.81212,0,0,1,42.05981,450.9585Z"
                  transform="translate(76.3368 18.6377)"
                />
              </g>
              <g>
                <path
                  class="cls-11"
                  d="M65.1883,450.9569a.8127.8127,0,0,1-.5763-.2387l-6.1445-6.1445a.81515.81515,0,1,1,1.1529-1.1527l6.1443,6.1443a.81515.81515,0,0,1-.5764,1.3916Z"
                  transform="translate(76.3368 18.6377)"
                />
                <path
                  class="cls-11"
                  d="M59.0439,450.9585a.81515.81515,0,0,1-.5764-1.3915l6.1428-6.146a.81508.81508,0,0,1,1.1527,1.1527l-6.1426,6.146A.81241.81241,0,0,1,59.0439,450.9585Z"
                  transform="translate(76.3368 18.6377)"
                />
              </g>
              <g>
                <path
                  class="cls-11"
                  d="M82.1726,450.9569a.81274.81274,0,0,1-.5764-.2387l-6.1445-6.1445a.81515.81515,0,0,1,1.1529-1.1527l6.1443,6.1443a.81515.81515,0,0,1-.5763,1.3916Z"
                  transform="translate(76.3368 18.6377)"
                />
                <path
                  class="cls-11"
                  d="M76.0281,450.9585a.81515.81515,0,0,1-.5764-1.3915l6.1429-6.146a.81508.81508,0,1,1,1.1527,1.1527l-6.1427,6.146A.81239.81239,0,0,1,76.0281,450.9585Z"
                  transform="translate(76.3368 18.6377)"
                />
              </g>
              <g>
                <path
                  class="cls-11"
                  d="M99.15681,450.9569a.81309.81309,0,0,1-.57641-.2387l-6.1444-6.1445a.81508.81508,0,1,1,1.1527-1.1527l6.1445,6.1443a.81515.81515,0,0,1-.57639,1.3916Z"
                  transform="translate(76.3368 18.6377)"
                />
                <path
                  class="cls-11"
                  d="M93.0123,450.9585a.81515.81515,0,0,1-.5763-1.3915l6.14281-6.146a.81508.81508,0,1,1,1.15269,1.1527l-6.1428,6.146A.81184.81184,0,0,1,93.0123,450.9585Z"
                  transform="translate(76.3368 18.6377)"
                />
              </g>
            </g>
          </g>
          <path
            class="cls-12"
            d="M764,316.0925,656.71461,208.8074a13.00546,13.00546,0,0,0-18.3925,18.3925l32.1166,32.1166a13.00338,13.00338,0,0,1-18.3863,18.3928l-1.404-1.4024a13.0021,13.0021,0,1,0-18.3892,18.3863l13.4687,13.4736a13.00338,13.00338,0,1,1-18.3895,18.3896l1.3429,1.3475a13.00338,13.00338,0,0,0-18.383,18.3961l78.7753,78.7753,6.2394,6.2377,7.3579,7.3579L764,500Z"
            transform="translate(76.3368 18.6377)"
          />
          <g>
            <polygon
              class="cls-6"
              points="476.836 401.064 514.3 411.104 551.765 421.142 524.339 448.569 496.913 475.995 486.874 438.53 476.836 401.064"
            />
            <path
              class="cls-11"
              d="M439.15849,456.3577l-21.8973-81.7251,81.72312,21.8973Zm-16.1544-75.9821,18.2563,68.137,49.87872-49.8805Z"
              transform="translate(76.3368 18.6377)"
            />
          </g>
          <g>
            <polygon
              class="cls-7"
              points="237.228 217.509 264.753 207.703 292.277 197.897 287.007 226.637 281.738 255.378 259.483 236.444 237.228 217.509"
            />
            <path
              class="cls-11"
              d="M211.79709,254.9689,163.2507,213.6662l60.04059-21.3914ZM169.2689,214.7697l40.47459,34.4356,9.5831-52.2702Z"
              transform="translate(76.3368 18.6377)"
            />
          </g>
          <g>
            <polygon
              class="cls-7"
              points="592.942 47.215 614.938 57.655 636.934 68.094 616.895 81.924 596.856 95.753 594.899 71.484 592.942 47.215"
            />
            <path
              class="cls-11"
              d="M513.54681,91.6242l-4.268-52.9397,47.9803,22.7724Zm-1.3722-48.7435,3.5583,44.1375,36.4443-25.1515Z"
              transform="translate(76.3368 18.6377)"
            />
          </g>
          <circle
            class="cls-7"
            cx="192.3473"
            cy="439.51527"
            r="31.70159"
            transform="translate(-74.58595 122.9861) rotate(-22.04843)"
          />
          <circle
            class="cls-6"
            cx="672.06549"
            cy="125.26218"
            r="31.70162"
            transform="translate(472.08179 769.20749) rotate(-76.71746)"
          />
          <circle
            class="cls-6"
            cx="222.57537"
            cy="52.26218"
            r="31.70162"
            transform="translate(196.24723 275.18164) rotate(-76.53153)"
          />
          <circle
            class="cls-13"
            cx="167.3486"
            cy="413.49515"
            r="17.47115"
            transform="translate(-191.23311 531.27761) rotate(-80.80777)"
          />
          <circle
            class="cls-13"
            cx="694.72981"
            cy="142.73325"
            r="17.47115"
            transform="translate(518.89332 824.26681) rotate(-80.78255)"
          />
          <path
            class="cls-11"
            d="M109.14781,306.0008a9.17675,9.17675,0,1,1,9.17769-9.1756A9.18628,9.18628,0,0,1,109.14781,306.0008Zm0-14.2921a5.1154,5.1154,0,1,0,5.11629,5.1165A5.12155,5.12155,0,0,0,109.14781,291.7087Z"
            transform="translate(76.3368 18.6377)"
          />
          <path
            class="cls-11"
            d="M604.75121,44.7953a9.1768,9.1768,0,1,1,9.1776-9.1757A9.18639,9.18639,0,0,1,604.75121,44.7953Zm0-14.2922a5.1154,5.1154,0,1,0,5.1163,5.1165A5.12155,5.12155,0,0,0,604.75121,30.5031Z"
            transform="translate(76.3368 18.6377)"
          />
          <path
            class="cls-11"
            d="M514.01471,336.7721a9.1768,9.1768,0,1,1,9.1777-9.1757A9.18645,9.18645,0,0,1,514.01471,336.7721Zm0-14.2922a5.1154,5.1154,0,1,0,5.1163,5.1165A5.12155,5.12155,0,0,0,514.01471,322.4799Z"
            transform="translate(76.3368 18.6377)"
          />
          <path
            class="cls-11"
            d="M712.19991,404.9464a9.17675,9.17675,0,1,1,9.1777-9.1756A9.1863,9.1863,0,0,1,712.19991,404.9464Zm0-14.2921a5.1154,5.1154,0,1,0,5.1163,5.1165A5.12155,5.12155,0,0,0,712.19991,390.6543Z"
            transform="translate(76.3368 18.6377)"
          />
          <path
            class="cls-11"
            d="M382.71119,136.875a9.1768,9.1768,0,1,1,9.1777-9.1757A9.18639,9.18639,0,0,1,382.71119,136.875Zm0-14.2922a5.1154,5.1154,0,1,0,5.1163,5.1165A5.12155,5.12155,0,0,0,382.71119,122.5828Z"
            transform="translate(76.3368 18.6377)"
          />
          <path
            class="cls-11"
            d="M83.91881,386.1644a4.0615,4.0615,0,0,1-2.87141-6.933l58.3682-58.3663a4.061,4.061,0,0,1,5.74321,5.7431L86.7904,384.9744A4.04753,4.04753,0,0,1,83.91881,386.1644Z"
            transform="translate(76.3368 18.6377)"
          />
          <path
            class="cls-6"
            d="M321.84589,154.9518a2.96955,2.96955,0,0,1,2.0995,5.0691l-42.6767,42.6753a2.96928,2.96928,0,1,1-4.1992-4.1992l42.6768-42.6752A2.95939,2.95939,0,0,1,321.84589,154.9518Z"
            transform="translate(76.3368 18.6377)"
          />
          <path
            class="cls-10"
            d="M563.40391,340.7178a2.9696,2.9696,0,0,1,2.0994,5.0691l-42.6766,42.6754a2.96928,2.96928,0,0,1-4.1992-4.1992l42.6768-42.6752A2.95932,2.95932,0,0,1,563.40391,340.7178Z"
            transform="translate(76.3368 18.6377)"
          />
          <path
            class="cls-10"
            d="M733.53921-18.3877a2.95944,2.95944,0,0,1,2.0995.8701,2.96828,2.96828,0,0,1,0,4.199L692.962,29.3567a2.96928,2.96928,0,1,1-4.1992-4.1992l42.6768-42.6751A2.95949,2.95949,0,0,1,733.53921-18.3877Z"
            transform="translate(76.3368 18.6377)"
          />
          <path
            class="cls-10"
            d="M771.33841,407.6522a2.96965,2.96965,0,0,1,2.0995,5.0692l-42.6767,42.6753a2.96928,2.96928,0,0,1-4.1992-4.1992l42.6768-42.6752A2.95949,2.95949,0,0,1,771.33841,407.6522Z"
            transform="translate(76.3368 18.6377)"
          />
          <path
            class="cls-6"
            d="M443.56149,331.2224a4.0614,4.0614,0,0,1-2.8716-6.9329l61.73372-61.7326a4.06084,4.06084,0,0,1,5.7429,5.7429l-61.73362,61.7327A4.04732,4.04732,0,0,1,443.56149,331.2224Z"
            transform="translate(76.3368 18.6377)"
          />
          <path
            class="cls-6"
            d="M716.26221,223.9277a4.0615,4.0615,0,0,1-2.8716-6.933l61.7336-61.7326a4.06091,4.06091,0,0,1,5.743,5.743l-61.7336,61.7326A4.04742,4.04742,0,0,1,716.26221,223.9277Z"
            transform="translate(76.3368 18.6377)"
          />
          <path
            class="cls-6"
            d="M559.68431,534.9277a4.0615,4.0615,0,0,1-2.8716-6.933l61.7336-61.7326a4.06091,4.06091,0,0,1,5.743,5.743l-61.7336,61.7326A4.04742,4.04742,0,0,1,559.68431,534.9277Z"
            transform="translate(76.3368 18.6377)"
          />
          <path
            class="cls-7"
            d="M307.20459,100.082a4.0614,4.0614,0,0,1-2.8716-6.9329l61.7336-61.7327a4.06091,4.06091,0,0,1,5.743,5.743L310.076,98.8921A4.0477,4.0477,0,0,1,307.20459,100.082Z"
            transform="translate(76.3368 18.6377)"
          />
          <path
            class="cls-6"
            d="M21.8209,55.4882a4.06145,4.06145,0,0,1-2.8716-6.9329L80.683-13.1774a4.06016,4.06016,0,0,1,5.743,0,4.05983,4.05983,0,0,1,0,5.743L24.6923,54.2982A4.04742,4.04742,0,0,1,21.8209,55.4882Z"
            transform="translate(76.3368 18.6377)"
          />
          <path
            class="cls-7"
            d="M-20.6631,430.9518a4.04754,4.04754,0,0,1-2.8716-1.19,4.06,4.06,0,0,1,0-5.743l61.7336-61.7326a4.06091,4.06091,0,1,1,5.743,5.743l-61.7336,61.7326A4.04742,4.04742,0,0,1-20.6631,430.9518Z"
            transform="translate(76.3368 18.6377)"
          />
          <rect
            class="cls-3"
            x="588.86621"
            y="171.303"
            width="17.0781"
            height="17.0782"
          />
        </g>
      </g>
    </g>
  </g>
</svg>
